REM DIRINDEX 1\2,1\3,1\4,1\5
REM DIRNAME cjc044,folder01,folder02,folder03,folder04
TITLE ""
FILE "1800_184.mp3" MP3
  TRACK 01 AUDIO
    TITLE "2:cjc044_6441"
    INDEX 01 00:00:00
  TRACK 02 AUDIO
    TITLE "0:"
    INDEX 01 00:01:11
  TRACK 03 AUDIO
    TITLE "3:cjc044_6442"
    INDEX 01 00:01:56
  TRACK 04 AUDIO
    TITLE "0:"
    INDEX 01 00:02:71
  TRACK 05 AUDIO
    TITLE "4:cjc044_6443"
    INDEX 01 00:03:43
  TRACK 06 AUDIO
    TITLE "0:"
    INDEX 01 00:04:68
  TRACK 07 AUDIO
    TITLE "2:cjc044_6444"
    INDEX 01 00:06:41
  TRACK 08 AUDIO
    TITLE "0:"
    INDEX 01 00:07:74
  TRACK 09 AUDIO
    TITLE "3:cjc044_6445"
    INDEX 01 00:08:48
  TRACK 10 AUDIO
    TITLE "0:"
    INDEX 01 00:09:59
  TRACK 11 AUDIO
    TITLE "4:cjc044_6446"
    INDEX 01 00:10:29
  TRACK 12 AUDIO
    TITLE "0:"
    INDEX 01 00:11:62
  TRACK 13 AUDIO
    TITLE "2:cjc044_6447"
    INDEX 01 00:13:33
  TRACK 14 AUDIO
    TITLE "0:"
    INDEX 01 00:14:60
  TRACK 15 AUDIO
    TITLE "3:cjc044_6448"
    INDEX 01 00:15:23
  TRACK 16 AUDIO
    TITLE "0:"
    INDEX 01 00:16:24
  TRACK 17 AUDIO
    TITLE "4:cjc044_6449"
    INDEX 01 00:16:65
  TRACK 18 AUDIO
    TITLE "0:"
    INDEX 01 00:18:17
  TRACK 19 AUDIO
    TITLE "2:cjc044_6450"
    INDEX 01 00:19:56
  TRACK 20 AUDIO
    TITLE "0:"
    INDEX 01 00:21:17
  TRACK 21 AUDIO
    TITLE "3:cjc044_6451"
    INDEX 01 00:21:64
  TRACK 22 AUDIO
    TITLE "0:"
    INDEX 01 00:23:03
  TRACK 23 AUDIO
    TITLE "4:cjc044_6452"
    INDEX 01 00:23:50
  TRACK 24 AUDIO
    TITLE "0:"
    INDEX 01 00:25:11
  TRACK 25 AUDIO
    TITLE "2:cjc044_6453"
    INDEX 01 00:26:60
  TRACK 26 AUDIO
    TITLE "0:"
    INDEX 01 00:28:15
  TRACK 27 AUDIO
    TITLE "3:cjc044_6454"
    INDEX 01 00:28:60
  TRACK 28 AUDIO
    TITLE "0:"
    INDEX 01 00:30:12
  TRACK 29 AUDIO
    TITLE "4:cjc044_6455"
    INDEX 01 00:30:59
  TRACK 30 AUDIO
    TITLE "0:"
    INDEX 01 00:32:17
  TRACK 31 AUDIO
    TITLE "2:cjc044_6456"
    INDEX 01 00:33:68
  TRACK 32 AUDIO
    TITLE "0:"
    INDEX 01 00:35:02
  TRACK 33 AUDIO
    TITLE "3:cjc044_6457"
    INDEX 01 00:35:53
  TRACK 34 AUDIO
    TITLE "0:"
    INDEX 01 00:36:38
  TRACK 35 AUDIO
    TITLE "4:cjc044_6458"
    INDEX 01 00:37:10
  TRACK 36 AUDIO
    TITLE "0:"
    INDEX 01 00:38:20
  TRACK 37 AUDIO
    TITLE "2:cjc044_6459"
    INDEX 01 00:39:72
  TRACK 38 AUDIO
    TITLE "0:"
    INDEX 01 00:41:32
  TRACK 39 AUDIO
    TITLE "3:cjc044_6460"
    INDEX 01 00:42:04
  TRACK 40 AUDIO
    TITLE "0:"
    INDEX 01 00:43:17
  TRACK 41 AUDIO
    TITLE "4:cjc044_6461"
    INDEX 01 00:43:62
  TRACK 42 AUDIO
    TITLE "0:"
    INDEX 01 00:45:24
  TRACK 43 AUDIO
    TITLE "2:cjc044_6462"
    INDEX 01 00:46:68
  TRACK 44 AUDIO
    TITLE "0:"
    INDEX 01 00:48:53
  TRACK 45 AUDIO
    TITLE "3:cjc044_6463"
    INDEX 01 00:49:25
  TRACK 46 AUDIO
    TITLE "0:"
    INDEX 01 00:50:35
  TRACK 47 AUDIO
    TITLE "4:cjc044_6464"
    INDEX 01 00:51:03
  TRACK 48 AUDIO
    TITLE "0:"
    INDEX 01 00:52:65
  TRACK 49 AUDIO
    TITLE "2:cjc044_6465"
    INDEX 01 00:54:36
  TRACK 50 AUDIO
    TITLE "0:"
    INDEX 01 00:55:51
  TRACK 51 AUDIO
    TITLE "3:cjc044_6466"
    INDEX 01 00:56:24
  TRACK 52 AUDIO
    TITLE "0:"
    INDEX 01 00:57:54
  TRACK 53 AUDIO
    TITLE "4:cjc044_6467"
    INDEX 01 00:58:26
  TRACK 54 AUDIO
    TITLE "0:"
    INDEX 01 00:59:41
  TRACK 55 AUDIO
    TITLE "2:cjc044_6468"
    INDEX 01 01:01:15
  TRACK 56 AUDIO
    TITLE "0:"
    INDEX 01 01:02:30
  TRACK 57 AUDIO
    TITLE "3:cjc044_6469"
    INDEX 01 01:03:00
  TRACK 58 AUDIO
    TITLE "0:"
    INDEX 01 01:03:65
  TRACK 59 AUDIO
    TITLE "4:cjc044_6470"
    INDEX 01 01:04:37
  TRACK 60 AUDIO
    TITLE "0:"
    INDEX 01 01:05:50
  TRACK 61 AUDIO
    TITLE "2:cjc044_6471"
    INDEX 01 01:07:21
  TRACK 62 AUDIO
    TITLE "0:"
    INDEX 01 01:08:74
  TRACK 63 AUDIO
    TITLE "3:cjc044_6472"
    INDEX 01 01:09:46
  TRACK 64 AUDIO
    TITLE "0:"
    INDEX 01 01:11:05
  TRACK 65 AUDIO
    TITLE "4:cjc044_6473"
    INDEX 01 01:11:52
  TRACK 66 AUDIO
    TITLE "0:"
    INDEX 01 01:13:32
  TRACK 67 AUDIO
    TITLE "2:cjc044_6474"
    INDEX 01 01:15:03
  TRACK 68 AUDIO
    TITLE "0:"
    INDEX 01 01:16:09
  TRACK 69 AUDIO
    TITLE "3:cjc044_6475"
    INDEX 01 01:16:56
  TRACK 70 AUDIO
    TITLE "0:"
    INDEX 01 01:18:23
  TRACK 71 AUDIO
    TITLE "4:cjc044_6476"
    INDEX 01 01:18:70
  TRACK 72 AUDIO
    TITLE "0:"
    INDEX 01 01:19:74
  TRACK 73 AUDIO
    TITLE "2:cjc044_6477"
    INDEX 01 01:21:45
  TRACK 74 AUDIO
    TITLE "0:"
    INDEX 01 01:22:62
  TRACK 75 AUDIO
    TITLE "3:cjc044_6478"
    INDEX 01 01:23:34
  TRACK 76 AUDIO
    TITLE "0:"
    INDEX 01 01:24:59
  TRACK 77 AUDIO
    TITLE "4:cjc044_6479"
    INDEX 01 01:25:27
  TRACK 78 AUDIO
    TITLE "0:"
    INDEX 01 01:26:44
  TRACK 79 AUDIO
    TITLE "2:cjc044_6480"
    INDEX 01 01:28:18
  TRACK 80 AUDIO
    TITLE "0:"
    INDEX 01 01:29:39
  TRACK 81 AUDIO
    TITLE "3:cjc044_6481"
    INDEX 01 01:30:13
  TRACK 82 AUDIO
    TITLE "0:"
    INDEX 01 01:31:39
  TRACK 83 AUDIO
    TITLE "4:cjc044_6482"
    INDEX 01 01:32:10
  TRACK 84 AUDIO
    TITLE "0:"
    INDEX 01 01:33:29
  TRACK 85 AUDIO
    TITLE "2:cjc044_6483"
    INDEX 01 01:35:04
  TRACK 86 AUDIO
    TITLE "0:"
    INDEX 01 01:36:47
  TRACK 87 AUDIO
    TITLE "3:cjc044_6484"
    INDEX 01 01:37:19
  TRACK 88 AUDIO
    TITLE "0:"
    INDEX 01 01:38:51
  TRACK 89 AUDIO
    TITLE "4:cjc044_6485"
    INDEX 01 01:39:23
  TRACK 90 AUDIO
    TITLE "0:"
    INDEX 01 01:40:62
  TRACK 91 AUDIO
    TITLE "2:cjc044_6486"
    INDEX 01 01:42:35
  TRACK 92 AUDIO
    TITLE "0:"
    INDEX 01 01:43:72
  TRACK 93 AUDIO
    TITLE "3:cjc044_6487"
    INDEX 01 01:44:42
  TRACK 94 AUDIO
    TITLE "0:"
    INDEX 01 01:45:47
  TRACK 95 AUDIO
    TITLE "4:cjc044_6488"
    INDEX 01 01:46:18
  TRACK 96 AUDIO
    TITLE "0:"
    INDEX 01 01:47:50
  TRACK 97 AUDIO
    TITLE "2:cjc044_6489"
    INDEX 01 01:49:26
  TRACK 98 AUDIO
    TITLE "0:"
    INDEX 01 01:50:41
  TRACK 99 AUDIO
    TITLE "3:cjc044_6490"
    INDEX 01 01:51:15
  TRACK 100 AUDIO
    TITLE "0:"
    INDEX 01 01:52:38
  TRACK 101 AUDIO
    TITLE "4:cjc044_6491"
    INDEX 01 01:53:10
  TRACK 102 AUDIO
    TITLE "0:"
    INDEX 01 01:54:27
  TRACK 103 AUDIO
    TITLE "2:cjc044_6492"
    INDEX 01 01:56:00
  TRACK 104 AUDIO
    TITLE "0:"
    INDEX 01 01:57:41
  TRACK 105 AUDIO
    TITLE "3:cjc044_6493"
    INDEX 01 01:58:15
  TRACK 106 AUDIO
    TITLE "0:"
    INDEX 01 01:59:53
  TRACK 107 AUDIO
    TITLE "4:cjc044_6494"
    INDEX 01 02:00:27
  TRACK 108 AUDIO
    TITLE "0:"
    INDEX 01 02:01:68
  TRACK 109 AUDIO
    TITLE "2:cjc044_6495"
    INDEX 01 02:03:45
  TRACK 110 AUDIO
    TITLE "0:"
    INDEX 01 02:04:57
  TRACK 111 AUDIO
    TITLE "3:cjc044_6496"
    INDEX 01 02:05:29
  TRACK 112 AUDIO
    TITLE "0:"
    INDEX 01 02:06:63
  TRACK 113 AUDIO
    TITLE "4:cjc044_6497"
    INDEX 01 02:07:37
  TRACK 114 AUDIO
    TITLE "0:"
    INDEX 01 02:08:50
